{
  "accessors": [
    {
      "bufferView": 2,
      "componentType": 5126,
      "count": 65532,
      "max": [
        50.7485466003418,
        46.88051986694336,
        171.32342529296875
      ],
      "min": [
        -46.25305938720703,
        -37.54248809814453,
        11.598396301269531
      ],
      "type": "VEC3"
    },
    {
      "bufferView": 2,
      "byteOffset": 786384,
      "componentType": 5126,
      "count": 65532,
      "max": [
        0.9993106722831726,
        0.9998952150344849,
        0.9999811053276062
      ],
      "min": [
        -0.999995768070221,
        -0.999995231628418,
        -1.0
      ],
      "type": "VEC3"
    },
    {
      "bufferView": 1,
      "componentType": 5126,
      "count": 65532,
      "max": [
        0.9933239817619324,
        0.997514009475708
      ],
      "min": [
        0.006831999868154526,
        0.008093999698758125
      ],
      "type": "VEC2"
    },
    {
      "bufferView": 0,
      "componentType": 5125,
      "count": 343392,
      "type": "SCALAR"
    },
    {
      "bufferView": 2,
      "byteOffset": 1572768,
      "componentType": 5126,
      "count": 65532,
      "max": [
        56.298377990722656,
        34.8097038269043,
        153.92953491210938
      ],
      "min": [
        -49.77473068237305,
        -35.710472106933594,
        6.511566162109375
      ],
      "type": "VEC3"
    },
    {
      "bufferView": 2,
      "byteOffset": 2359152,
      "componentType": 5126,
      "count": 65532,
      "max": [
        0.9999669790267944,
        0.9999951124191284,
        0.9999933838844299
      ],
      "min": [
        -0.9990361332893372,
        -0.9999986290931702,
        -0.9999901056289673
      ],
      "type": "VEC3"
    },
    {
      "bufferView": 1,
      "byteOffset": 524256,
      "componentType": 5126,
      "count": 65532,
      "max": [
        0.8541920185089111,
        0.9586589932441711
      ],
      "min": [
        0.015636000782251358,
        0.02106199972331524
      ],
      "type": "VEC2"
    },
    {
      "bufferView": 0,
      "byteOffset": 1373568,
      "componentType": 5125,
      "count": 350385,
      "type": "SCALAR"
    },
    {
      "bufferView": 2,
      "byteOffset": 3145536,
      "componentType": 5126,
      "count": 65532,
      "max": [
        56.736568450927734,
        57.69657516479492,
        123.36859130859375
      ],
      "min": [
        -49.226104736328125,
        -34.63185119628906,
        -2.119086980819702
      ],
      "type": "VEC3"
    },
    {
      "bufferView": 2,
      "byteOffset": 3931920,
      "componentType": 5126,
      "count": 65532,
      "max": [
        0.9999959468841553,
        0.9999931454658508,
        0.9999141693115234
      ],
      "min": [
        -0.9995802044868469,
        -0.9999862909317017,
        -1.0
      ],
      "type": "VEC3"
    },
    {
      "bufferView": 1,
      "byteOffset": 1048512,
      "componentType": 5126,
      "count": 65532,
      "max": [
        0.9743149876594543,
        0.9995669722557068
      ],
      "min": [
        0.0036589999217540026,
        0.004040999803692102
      ],
      "type": "VEC2"
    },
    {
      "bufferView": 0,
      "byteOffset": 2775108,
      "componentType": 5125,
      "count": 331026,
      "type": "SCALAR"
    },
    {
      "bufferView": 2,
      "byteOffset": 4718304,
      "componentType": 5126,
      "count": 65534,
      "max": [
        55.379669189453125,
        57.66843795776367,
        122.45794677734375
      ],
      "min": [
        -55.03593063354492,
        -35.844696044921875,
        -2.1157989501953125
      ],
      "type": "VEC3"
    },
    {
      "bufferView": 2,
      "byteOffset": 5504712,
      "componentType": 5126,
      "count": 65534,
      "max": [
        0.999980628490448,
        0.9999961853027344,
        0.9995003938674927
      ],
      "min": [
        -0.9999667406082153,
        -0.9999473690986633,
        -1.0
      ],
      "type": "VEC3"
    },
    {
      "bufferView": 1,
      "byteOffset": 1572768,
      "componentType": 5126,
      "count": 65534,
      "max": [
        0.9871150255203247,
        0.9995999932289124
      ],
      "min": [
        0.003594999900087714,
        0.003599999938160181
      ],
      "type": "VEC2"
    },
    {
      "bufferView": 0,
      "byteOffset": 4099212,
      "componentType": 5125,
      "count": 319050,
      "type": "SCALAR"
    },
    {
      "bufferView": 2,
      "byteOffset": 6291120,
      "componentType": 5126,
      "count": 65532,
      "max": [
        52.003211975097656,
        37.17184829711914,
        160.87271118164063
      ],
      "min": [
        -55.03593063354492,
        -35.802371978759766,
        -0.576026976108551
      ],
      "type": "VEC3"
    },
    {
      "bufferView": 2,
      "byteOffset": 7077504,
      "componentType": 5126,
      "count": 65532,
      "max": [
        0.9999475479125977,
        0.9999951124191284,
        0.9999547004699707
      ],
      "min": [
        -0.9999712705612183,
        -0.9999885559082031,
        -0.9999908804893494
      ],
      "type": "VEC3"
    },
    {
      "bufferView": 1,
      "byteOffset": 2097040,
      "componentType": 5126,
      "count": 65532,
      "max": [
        0.995743989944458,
        0.9687409996986389
      ],
      "min": [
        0.020258000120520592,
        0.003432000055909157
      ],
      "type": "VEC2"
    },
    {
      "bufferView": 0,
      "byteOffset": 5375412,
      "componentType": 5125,
      "count": 308499,
      "type": "SCALAR"
    },
    {
      "bufferView": 2,
      "byteOffset": 7863888,
      "componentType": 5126,
      "count": 13035,
      "max": [
        49.0407600402832,
        19.520545959472656,
        171.29678344726563
      ],
      "min": [
        -45.10746765136719,
        -37.52376174926758,
        109.10281372070313
      ],
      "type": "VEC3"
    },
    {
      "bufferView": 2,
      "byteOffset": 8020308,
      "componentType": 5126,
      "count": 13035,
      "max": [
        0.9894310235977173,
        0.9844753742218018,
        0.9999547004699707
      ],
      "min": [
        -0.9990683794021606,
        -0.9999567270278931,
        -0.9999899864196777
      ],
      "type": "VEC3"
    },
    {
      "bufferView": 1,
      "byteOffset": 2621296,
      "componentType": 5126,
      "count": 13035,
      "max": [
        0.7885249853134155,
        0.9437900185585022
      ],
      "min": [
        0.2528730034828186,
        0.028919000178575516
      ],
      "type": "VEC2"
    },
    {
      "bufferView": 0,
      "byteOffset": 6609408,
      "componentType": 5125,
      "count": 49749,
      "type": "SCALAR"
    }
  ],
  "asset": {
    "extras": {
      "author": "Barbucha Studio (https://sketchfab.com/lukinec)",
      "license": "CC-BY-4.0 (http://creativecommons.org/licenses/by/4.0/)",
      "source": "https://sketchfab.com/3d-models/chinese-cat-that-is-actually-japanese-45ecc88d44194525aae4a1bb112f6d77",
      "title": "Chinese Cat ( that is actually Japanese )"
    },
    "generator": "Sketchfab-12.63.0",
    "version": "2.0"
  },
  "bufferViews": [
    {
      "buffer": 0,
      "byteLength": 6808404,
      "name": "floatBufferViews",
      "target": 34963
    },
    {
      "buffer": 0,
      "byteLength": 2725576,
      "byteOffset": 6808404,
      "byteStride": 8,
      "name": "floatBufferViews",
      "target": 34962
    },
    {
      "buffer": 0,
      "byteLength": 8176728,
      "byteOffset": 9533980,
      "byteStride": 12,
      "name": "floatBufferViews",
      "target": 34962
    }
  ],
  "buffers": [
    {
      "byteLength": 17710708,
      "uri": "scene.bin"
    }
  ],
  "images": [
    {
      "uri": "textures/material_0_baseColor.jpeg"
    },
    {
      "uri": "textures/material_0_metallicRoughness.png"
    }
  ],
  "materials": [
    {
      "doubleSided": true,
      "name": "material_0",
      "pbrMetallicRoughness": {
        "baseColorTexture": {
          "index": 0
        },
        "metallicFactor": 0.43,
        "metallicRoughnessTexture": {
          "index": 1
        }
      }
    }
  ],
  "meshes": [
    {
      "name": "Object_0",
      "primitives": [
        {
          "attributes": {
            "NORMAL": 1,
            "POSITION": 0,
            "TEXCOORD_0": 2
          },
          "indices": 3,
          "material": 0,
          "mode": 4
        }
      ]
    },
    {
      "name": "Object_1",
      "primitives": [
        {
          "attributes": {
            "NORMAL": 5,
            "POSITION": 4,
            "TEXCOORD_0": 6
          },
          "indices": 7,
          "material": 0,
          "mode": 4
        }
      ]
    },
    {
      "name": "Object_2",
      "primitives": [
        {
          "attributes": {
            "NORMAL": 9,
            "POSITION": 8,
            "TEXCOORD_0": 10
          },
          "indices": 11,
          "material": 0,
          "mode": 4
        }
      ]
    },
    {
      "name": "Object_3",
      "primitives": [
        {
          "attributes": {
            "NORMAL": 13,
            "POSITION": 12,
            "TEXCOORD_0": 14
          },
          "indices": 15,
          "material": 0,
          "mode": 4
        }
      ]
    },
    {
      "name": "Object_4",
      "primitives": [
        {
          "attributes": {
            "NORMAL": 17,
            "POSITION": 16,
            "TEXCOORD_0": 18
          },
          "indices": 19,
          "material": 0,
          "mode": 4
        }
      ]
    },
    {
      "name": "Object_5",
      "primitives": [
        {
          "attributes": {
            "NORMAL": 21,
            "POSITION": 20,
            "TEXCOORD_0": 22
          },
          "indices": 23,
          "material": 0,
          "mode": 4
        }
      ]
    }
  ],
  "nodes": [
    {
      "children": [
        1
      ],
      "matrix": [
        1.0,
        0.0,
        0.0,
        0.0,
        0.0,
        2.220446049250313e-16,
        -1.0,
        0.0,
        0.0,
        1.0,
        2.220446049250313e-16,
        0.0,
        0.0,
        0.0,
        0.0,
        1.0
      ],
      "name": "Sketchfab_model"
    },
    {
      "children": [
        2,
        3,
        4,
        5,
        6,
        7
      ],
      "name": "f9b0c84473174d5c9ceeb1f6740019c7.obj.cleaner"
    },
    {
      "mesh": 0,
      "name": "Object_2"
    },
    {
      "mesh": 1,
      "name": "Object_3"
    },
    {
      "mesh": 2,
      "name": "Object_4"
    },
    {
      "mesh": 3,
      "name": "Object_5"
    },
    {
      "mesh": 4,
      "name": "Object_6"
    },
    {
      "mesh": 5,
      "name": "Object_7"
    }
  ],
  "samplers": [
    {
      "magFilter": 9729,
      "minFilter": 9987,
      "wrapS": 10497,
      "wrapT": 10497
    }
  ],
  "scene": 0,
  "scenes": [
    {
      "name": "Sketchfab_Scene",
      "nodes": [
        0
      ]
    }
  ],
  "textures": [
    {
      "sampler": 0,
      "source": 0
    },
    {
      "sampler": 0,
      "source": 1
    }
  ]
}
